<svg width="156" height="100" viewBox="0 0 156 100" fill="none" xmlns="http://www.w3.org/2000/svg">
<g style="mix-blend-mode:multiply">
<rect width="154.545" height="100" transform="translate(0.727295)" fill="white"/>
<path d="M86.9412 31.4977C89.149 31.7179 91.2464 32.9294 92.6815 35.0219L89.7009 37.3347C89.0386 36.3435 88.0451 35.6827 86.9412 35.4624V39.5373C89.7009 40.088 92.4607 41.5197 92.4607 45.4845C92.2399 48.5682 89.8113 50.3303 86.9412 50.7708V52.4228H84.4022V50.7708C82.4152 50.5505 80.5386 49.5594 79.2139 47.4668L82.4152 45.2642C82.9672 46.0351 83.6295 46.5858 84.4022 46.9162V42.9514C81.4217 42.2906 78.662 40.969 78.8828 36.8942C79.1035 33.9206 81.6425 32.0483 84.4022 31.6078V29.8457H86.9412V31.4977ZM88.3763 45.3743C88.3763 44.3831 87.7139 43.9426 86.8308 43.7224V47.1364C87.8243 46.6959 88.3763 46.2554 88.3763 45.3743ZM84.4022 39.0968V35.4624C83.5191 35.6827 82.8568 36.3435 82.8568 37.2246C82.7464 38.2157 83.4087 38.7664 84.4022 39.0968Z" fill="#0285C9"/>
<path d="M102.506 58.4801C101.623 58.4801 100.851 57.7092 100.851 56.8281V20.3743L97.9804 22.577C97.4284 23.0175 96.5453 23.0175 95.9934 22.577L91.4674 19.0528L86.9414 22.577C86.3895 23.0175 85.5064 23.0175 84.9544 22.577L80.4284 19.0528L75.9025 22.577C75.3505 23.0175 74.4674 23.0175 73.9155 22.577L71.0453 20.3743V56.9382C71.0453 57.8193 70.2726 58.5902 69.3895 58.5902C68.5064 58.5902 67.7336 57.8193 67.7336 56.9382V16.9603C67.7336 16.2995 68.0648 15.7488 68.6168 15.5285C69.1687 15.1981 69.831 15.3083 70.383 15.7488L74.909 19.273L79.4349 15.7488C79.9869 15.3083 80.87 15.3083 81.422 15.7488L85.9479 19.273L90.4739 15.7488C91.0259 15.3083 91.909 15.3083 92.4609 15.7488L96.9869 19.273L101.513 15.7488C102.065 15.4184 102.727 15.3083 103.279 15.5285C103.831 15.8589 104.162 16.4096 104.162 16.9603V56.8281C104.162 57.8193 103.389 58.4801 102.506 58.4801Z" fill="#C5C7C8"/>
<path d="M112.883 91.2995H34.396C30.0908 91.2995 26.6687 87.8854 26.6687 83.5903V36.2334C26.6687 31.9383 30.0908 28.5242 34.396 28.5242H45.9869C50.2921 28.5242 53.7142 31.9383 53.7142 36.2334V38.2158H63.3181C64.2012 38.2158 64.9739 38.9867 64.9739 39.8678C64.9739 40.7488 64.2012 41.5198 63.3181 41.5198H52.0583C51.1752 41.5198 50.4025 40.7488 50.4025 39.8678V36.2334C50.4025 33.8105 48.4155 31.8281 45.9869 31.8281H34.396C31.9674 31.8281 29.9804 33.8105 29.9804 36.2334V83.5903C29.9804 86.0132 31.9674 87.9955 34.396 87.9955H112.883C113.766 87.9955 114.539 88.7665 114.539 89.6475C114.539 90.5286 113.876 91.2995 112.883 91.2995Z" fill="#303D63"/>
<path d="M118.955 58.4801C118.072 58.4801 117.299 57.7092 117.299 56.8281V45.9251C117.299 43.5022 115.312 41.5198 112.883 41.5198H108.357C107.474 41.5198 106.701 40.7489 106.701 39.8678C106.701 38.9867 107.474 38.2158 108.357 38.2158H112.883C117.188 38.2158 120.611 41.6299 120.611 45.9251V56.8281C120.611 57.8193 119.948 58.4801 118.955 58.4801Z" fill="#303D63"/>
<path d="M114.981 91.2995H34.7274C31.8572 91.2995 29.3183 89.8678 27.8832 87.4449C26.4481 85.1321 26.4481 82.3788 27.6624 80.066L38.2598 59.4713C39.5845 56.8281 42.3442 55.1761 45.4352 55.1761H125.688C128.559 55.1761 131.097 56.6079 132.533 59.0308C133.968 61.3435 133.968 64.0969 132.753 66.4096L122.156 87.0043C120.721 89.6475 117.961 91.2995 114.981 91.2995ZM45.4352 58.4801C43.6689 58.4801 42.0131 59.4713 41.2404 60.903L30.4222 81.4977C29.7598 82.8193 29.7598 84.3612 30.5326 85.6828C31.4157 87.1145 32.8507 87.8854 34.617 87.8854H114.87C116.636 87.8854 118.292 86.8942 119.065 85.4625L129.883 64.8678C130.546 63.5462 130.546 62.0043 129.773 60.6828C128.89 59.251 127.455 58.4801 125.688 58.4801H45.4352Z" fill="#303D63"/>
<path d="M22.8054 7.59914C22.8054 8.4802 23.5781 9.25112 24.4613 9.25112C25.3444 9.25112 26.1171 8.4802 26.1171 7.59914C26.1171 6.71808 26.1171 2.64319 26.1171 2.64319C26.1171 1.76214 25.3444 0.991211 24.4613 0.991211C23.5781 0.991211 22.8054 1.76214 22.8054 2.64319V7.59914Z" fill="#C5C7C8"/>
<path d="M21.9222 3.41418C21.0391 3.41418 20.2664 4.18511 20.2664 5.06617C20.2664 5.94722 21.0391 6.71815 21.9222 6.71815C22.8053 6.71815 27.0001 6.71815 27.0001 6.71815C27.8832 6.71815 28.656 5.94722 28.656 5.06617C28.656 4.18511 27.8832 3.41418 27.0001 3.41418H21.9222Z" fill="#C5C7C8"/>
<path d="M140.922 70.3745C140.922 71.2556 141.695 72.0265 142.578 72.0265C143.461 72.0265 144.234 71.2556 144.234 70.3745C144.234 69.4935 144.234 65.4186 144.234 65.4186C144.234 64.5375 143.461 63.7666 142.578 63.7666C141.695 63.7666 140.922 64.5375 140.922 65.4186V70.3745Z" fill="#C5C7C8"/>
<path d="M140.039 66.1895C139.156 66.1895 138.383 66.9604 138.383 67.8414C138.383 68.7225 139.156 69.4934 140.039 69.4934C140.922 69.4934 145.117 69.4934 145.117 69.4934C146 69.4934 146.773 68.7225 146.773 67.8414C146.773 66.9604 146 66.1895 145.117 66.1895H140.039Z" fill="#C5C7C8"/>
<path d="M14.8573 90.5287C15.7404 90.5287 16.5131 89.7578 16.5131 88.8767C16.5131 87.9957 15.7404 87.2247 14.8573 87.2247C13.9742 87.2247 3.48714 87.2247 3.48714 87.2247C2.60403 87.2247 1.8313 87.9957 1.8313 88.8767C1.8313 89.7578 2.60403 90.5287 3.48714 90.5287H14.8573Z" fill="#C5C7C8"/>
<path d="M151.63 99.0089C153.065 99.0089 154.169 97.9076 154.169 96.586C154.169 95.2644 153.065 94.1631 151.63 94.1631C150.195 94.1631 149.091 95.2644 149.091 96.586C149.091 97.9076 150.305 99.0089 151.63 99.0089Z" fill="#C5C7C8"/>
<path d="M9.22719 54.9559C10.6623 54.9559 11.7662 53.8546 11.7662 52.533C11.7662 51.2114 10.6623 50.1101 9.22719 50.1101C7.79213 50.1101 6.68823 51.2114 6.68823 52.533C6.68823 53.8546 7.90252 54.9559 9.22719 54.9559Z" fill="#C5C7C8"/>
<path d="M139.929 9.91188C140.812 9.91188 141.584 9.14095 141.584 8.25989C141.584 7.37884 139.929 6.60791 139.929 6.60791H137.169C136.286 6.60791 135.513 7.37884 135.513 8.25989C135.513 9.14095 136.286 9.91188 137.169 9.91188H139.929Z" fill="#C5C7C8"/>
<path d="M131.098 9.91188C131.981 9.91188 132.753 9.14095 132.753 8.25989C132.753 7.37884 131.981 6.60791 131.098 6.60791C130.214 6.60791 119.727 6.60791 119.727 6.60791C118.844 6.60791 118.072 7.37884 118.072 8.25989C118.072 9.14095 118.844 9.91188 119.727 9.91188H131.098Z" fill="#C5C7C8"/>
</g>
</svg>
